<svg width="102" height="102" viewBox="0 0 102 102" fill="none" xmlns="http://www.w3.org/2000/svg">
<rect x="0.276367" y="0.927734" width="101" height="101" rx="50.5" fill="#E3F6F3"/>
<path fill-rule="evenodd" clip-rule="evenodd" d="M50.9134 72.2234C50.4696 72.3898 49.9848 72.4131 49.527 72.2899C49.0692 72.1668 48.6615 71.9035 48.3611 71.5368L46.6891 69.4933C46.4858 69.2443 46.3375 68.9551 46.254 68.6446C46.1705 68.3342 46.1536 68.0096 46.2045 67.6921C46.2853 67.1833 46.3903 66.5452 46.4953 65.9233C46.5453 65.6109 46.6606 65.3125 46.8336 65.0476C47.0066 64.7827 47.2334 64.5572 47.4993 64.3858C47.7652 64.2144 48.0643 64.1008 48.3769 64.0526C48.6896 64.0044 49.009 64.0226 49.3142 64.1059L53.8131 65.3094C54.1192 65.3904 54.4048 65.535 54.6512 65.7337C54.8977 65.9324 55.0996 66.1809 55.2436 66.4628C55.3876 66.7448 55.4706 67.054 55.4872 67.3701C55.5037 67.6863 55.4535 68.0025 55.3397 68.2979C55.1216 68.8875 54.8873 69.4933 54.7096 69.9699C54.5972 70.2727 54.4217 70.5481 54.1947 70.7778C53.9677 71.0076 53.6945 71.1865 53.3931 71.3026L50.9134 72.2234ZM51.3496 63.8232C51.7923 63.993 52.2773 64.0189 52.7356 63.8971C53.1938 63.7753 53.602 63.512 53.9019 63.1448L55.582 61.0932C55.7852 60.8443 55.9329 60.5548 56.0151 60.2441C56.0973 59.9335 56.1121 59.6088 56.0585 59.292C55.9777 58.7912 55.8727 58.1531 55.7758 57.5231C55.7228 57.2114 55.6057 56.9141 55.4319 56.6499C55.2582 56.3858 55.0315 56.1605 54.7662 55.9885C54.5002 55.8162 54.2008 55.702 53.8877 55.6533C53.5745 55.6046 53.2546 55.6225 52.9488 55.7058L48.458 56.9093C48.1526 56.9916 47.8677 57.1368 47.6217 57.3356C47.3757 57.5345 47.174 57.7826 47.0295 58.064C46.885 58.3454 46.8009 58.6539 46.7826 58.9697C46.7643 59.2855 46.8123 59.6016 46.9234 59.8978C47.1495 60.4874 47.3757 61.0932 47.5614 61.5697C47.673 61.8711 47.8485 62.1448 48.0757 62.372C48.3029 62.5993 48.5766 62.7747 48.878 62.8863L51.3496 63.8232ZM50.9134 55.4231C50.4705 55.5917 49.9859 55.6168 49.5279 55.4951C49.07 55.3734 48.6618 55.1108 48.3611 54.7446L46.6891 52.7254C46.4849 52.4769 46.336 52.1876 46.2525 51.877C46.1689 51.5664 46.1525 51.2416 46.2045 50.9242C46.2853 50.4234 46.3903 49.7853 46.4953 49.1553C46.5453 48.8429 46.6606 48.5445 46.8336 48.2796C47.0066 48.0147 47.2334 47.7892 47.4993 47.6178C47.7652 47.4464 48.0643 47.3329 48.3769 47.2846C48.6896 47.2364 49.009 47.2546 49.3142 47.338L53.8131 48.5414C54.1221 48.6176 54.412 48.7567 54.6649 48.9498C54.9178 49.143 55.1283 49.3861 55.2831 49.6641C55.4261 49.9461 55.5086 50.2549 55.5253 50.5707C55.5419 50.8864 55.4925 51.2021 55.38 51.4976C55.162 52.0873 54.9277 52.693 54.75 53.1696C54.637 53.4702 54.4611 53.7431 54.2341 53.9702C54.007 54.1973 53.7341 54.3732 53.4335 54.4861L50.9134 55.4231ZM51.3496 47.0714C51.7934 47.2378 52.2783 47.2611 52.736 47.138C53.1938 47.0149 53.6015 46.7515 53.9019 46.3849L55.582 44.3333C55.7846 44.0856 55.9319 43.7975 56.0141 43.4883C56.0963 43.179 56.1114 42.8558 56.0585 42.5402C55.9777 42.0313 55.8727 41.3932 55.7758 40.7713C55.7239 40.4582 55.6073 40.1592 55.4334 39.8936C55.2596 39.628 55.0324 39.4015 54.7662 39.2286C54.4986 39.06 54.1993 38.9479 53.8867 38.8993C53.5742 38.8507 53.255 38.8665 52.9488 38.9459L48.458 40.1494C48.1526 40.2317 47.8677 40.3769 47.6217 40.5758C47.3757 40.7746 47.174 41.0227 47.0295 41.3041C46.885 41.5855 46.8009 41.894 46.7826 42.2098C46.7643 42.5256 46.8123 42.8417 46.9234 43.1379L47.5614 44.8179C47.6744 45.1185 47.8503 45.3915 48.0774 45.6185C48.3045 45.8456 48.5774 46.0215 48.878 46.1345L51.3496 47.0714ZM48.3611 37.9847C48.6623 38.3504 49.07 38.613 49.5275 38.7361C49.985 38.8591 50.4694 38.8365 50.9134 38.6713L53.3931 37.7343C53.6924 37.6191 53.9642 37.4424 54.1909 37.2156C54.4177 36.9889 54.5944 36.7171 54.7096 36.4178C54.8873 35.9331 55.1216 35.3354 55.3397 34.7377C55.4589 34.4411 55.5134 34.1223 55.4996 33.8029C55.4857 33.4834 55.4037 33.1706 55.2592 32.8854C55.1147 32.6001 54.9109 32.3491 54.6615 32.149C54.4121 31.9488 54.1229 31.8043 53.8131 31.725L49.3142 30.5134C49.0085 30.4327 48.6893 30.4168 48.377 30.4666C48.0648 30.5164 47.7665 30.6309 47.5011 30.8028C47.2357 30.9747 47.0091 31.2001 46.8359 31.4646C46.6627 31.7291 46.5467 32.0269 46.4953 32.3389C46.3903 32.9608 46.2853 33.5989 46.2045 34.1077C46.1532 34.4239 46.1699 34.7473 46.2535 35.0565C46.337 35.3657 46.4856 35.6536 46.6891 35.9008L48.3611 37.9847Z" stroke="#4D6F69" stroke-width="2" stroke-miterlimit="10"/>
<path d="M40.5265 72.3285H32.5464C32.3322 72.3285 32.1267 72.2434 31.9753 72.0919C31.8238 71.9404 31.7387 71.735 31.7387 71.5208V69.0977C31.7387 67.1753 31.7387 65.2853 31.7387 63.3872C31.8111 62.2147 31.4326 61.0589 30.6806 60.1564C29.3304 58.4591 28.0687 56.6932 26.9005 54.8659C26.3884 54.0312 26.1095 53.0745 26.0928 52.0955C26.0444 48.3719 26.0928 44.6403 26.0928 40.9087V38.4291C26.0596 37.9458 26.124 37.4607 26.2822 37.0028C26.4404 36.5448 26.6892 36.1234 27.0136 35.7637C27.2749 35.502 27.5862 35.2956 27.929 35.1569C28.2717 35.0181 28.6389 34.9498 29.0086 34.956V34.956C30.6725 34.956 31.8033 36.3371 31.8114 38.3725V46.6273C32.3045 46.754 32.7504 47.0204 33.0956 47.3946C33.8133 48.1831 34.4796 49.0167 35.0907 49.8904L36.3991 51.6835C37.5865 53.2989 38.8223 54.9144 39.8884 56.6913C40.6747 57.928 41.141 59.3408 41.2454 60.8025C41.3665 63.3468 41.3423 65.8345 41.3262 68.4677C41.3262 69.4854 41.3262 70.5112 41.3262 71.545C41.3199 71.7536 41.2332 71.9517 41.0841 72.0978C40.935 72.2438 40.7352 72.3265 40.5265 72.3285V72.3285Z" stroke="#4D6F69" stroke-width="2" stroke-linecap="round" stroke-linejoin="round"/>
<path d="M31.2223 46.8049C31.2223 46.8049 28.8557 47.7338 30.6084 50.4638C32.3611 53.1939 34.7358 56.8043 34.7358 56.8043" stroke="#4D6F69" stroke-width="2" stroke-linecap="round" stroke-linejoin="round"/>
<path d="M60.283 71.545C60.283 70.5112 60.283 69.4854 60.283 68.4677C60.283 65.8345 60.2345 63.3468 60.3557 60.8025C60.4655 59.3431 60.9284 57.9322 61.7046 56.6913C62.7788 54.9547 64.0065 53.2909 65.1939 51.6835L66.5023 49.8904C67.1087 49.018 67.7725 48.1869 68.4893 47.4027C68.8299 47.0269 69.2738 46.76 69.7655 46.6354V46.6354V44.0023C69.7655 42.1203 69.7655 40.2787 69.7655 38.4372C69.7655 36.4017 70.8963 35.0286 72.5601 35.0206C72.931 35.0151 73.2992 35.0838 73.6431 35.2225C73.9871 35.3612 74.2999 35.5671 74.5632 35.8283C75.1995 36.5404 75.5276 37.4756 75.476 38.4291V40.9976C75.476 44.7292 75.476 48.4608 75.476 52.1843C75.4593 53.1634 75.1803 54.1201 74.6682 54.9547C73.5028 56.7839 72.241 58.5499 70.8882 60.2452C70.1362 61.1477 69.7577 62.3035 69.8301 63.476C69.8785 65.3741 69.8705 67.2642 69.8301 69.1865V71.6096C69.8301 71.8238 69.745 72.0293 69.5935 72.1808C69.442 72.3322 69.2366 72.4173 69.0224 72.4173H61.0423C60.9347 72.4112 60.8294 72.3837 60.7326 72.3362C60.6358 72.2888 60.5495 72.2225 60.4788 72.1412C60.408 72.0599 60.3542 71.9653 60.3206 71.8629C60.287 71.7605 60.2742 71.6524 60.283 71.545Z" stroke="#4D6F69" stroke-width="2" stroke-linecap="round" stroke-linejoin="round"/>
<path d="M70.3629 46.8049C70.3629 46.8049 72.7375 47.7338 70.9767 50.4638C69.2159 53.1939 66.8574 56.8043 66.8574 56.8043" stroke="#4D6F69" stroke-width="2" stroke-linecap="round" stroke-linejoin="round"/>
</svg>
