<svg width="16" height="16" viewBox="0 0 16 16" fill="none" xmlns="http://www.w3.org/2000/svg">
  <path d="M5.9088 1.4424V7.404C5.9088 7.5931 5.87156 7.78035 5.79919 7.95506C5.72683 8.12977 5.62075 8.28851 5.48704 8.42223C5.35332 8.55595 5.19458 8.66201 5.01987 8.73438C4.84516 8.80675 4.65791 8.84399 4.46881 8.84399H1.44C1.2509 8.84399 1.06365 8.80675 0.88894 8.73438C0.714232 8.66201 0.555494 8.55595 0.421777 8.42223C0.288061 8.28851 0.181986 8.12977 0.109619 7.95506C0.0372524 7.78035 0 7.5931 0 7.404V1.4424C0 1.25329 0.0372524 1.06604 0.109619 0.891333C0.181986 0.716624 0.288061 0.55788 0.421777 0.424164C0.555494 0.290447 0.714232 0.184378 0.88894 0.112012C1.06365 0.0396449 1.2509 0.00239868 1.44 0.00239868H4.46881C4.65791 0.00239868 4.84516 0.0396449 5.01987 0.112012C5.19458 0.184378 5.35332 0.290447 5.48704 0.424164C5.62075 0.55788 5.72683 0.716624 5.79919 0.891333C5.87156 1.06604 5.9088 1.25329 5.9088 1.4424ZM4.46881 9.9424H1.44C1.2509 9.9424 1.06365 9.97964 0.88894 10.052C0.714232 10.1244 0.555494 10.2304 0.421777 10.3642C0.288061 10.4979 0.181986 10.6566 0.109619 10.8313C0.0372524 11.006 0 11.1933 0 11.3824V14.5552C0 14.7443 0.0372524 14.9316 0.109619 15.1063C0.181986 15.281 0.288061 15.4397 0.421777 15.5734C0.555494 15.7071 0.714232 15.8132 0.88894 15.8856C1.06365 15.958 1.2509 15.9952 1.44 15.9952H4.46881C4.65791 15.9952 4.84516 15.958 5.01987 15.8856C5.19458 15.8132 5.35332 15.7071 5.48704 15.5734C5.62075 15.4397 5.72683 15.281 5.79919 15.1063C5.87156 14.9316 5.9088 14.7443 5.9088 14.5552V11.3824C5.9088 11.1933 5.87156 11.006 5.79919 10.8313C5.72683 10.6566 5.62075 10.4979 5.48704 10.3642C5.35332 10.2304 5.19458 10.1244 5.01987 10.052C4.84516 9.97964 4.65791 9.9424 4.46881 9.9424ZM14.5552 6.3944H8.4504C8.06849 6.3944 7.70222 6.54611 7.43217 6.81616C7.16211 7.08621 7.0104 7.45249 7.0104 7.8344V14.5544C7.0104 14.9363 7.16211 15.3026 7.43217 15.5726C7.70222 15.8427 8.06849 15.9944 8.4504 15.9944H14.556C14.9379 15.9944 15.3042 15.8427 15.5742 15.5726C15.8443 15.3026 15.996 14.9363 15.996 14.5544V7.8344C15.996 7.45249 15.8443 7.08621 15.5742 6.81616C15.3042 6.54611 14.9379 6.3944 14.556 6.3944H14.5552ZM14.5552 0H8.4504C8.06849 0 7.70222 0.151713 7.43217 0.421765C7.16211 0.691818 7.0104 1.05808 7.0104 1.44V3.8536C7.0104 4.23551 7.16211 4.60178 7.43217 4.87183C7.70222 5.14188 8.06849 5.2936 8.4504 5.2936H14.556C14.9379 5.2936 15.3042 5.14188 15.5742 4.87183C15.8443 4.60178 15.996 4.23551 15.996 3.8536V1.4424C15.996 1.06048 15.8443 0.694216 15.5742 0.424164C15.3042 0.154111 14.9379 0.00239868 14.556 0.00239868L14.5552 0Z" fill="white"/>
</svg>