<svg width="102" height="102" viewBox="0 0 102 102" fill="none" xmlns="http://www.w3.org/2000/svg">
<rect x="0.276367" y="0.857422" width="101" height="101" rx="50.5" fill="#FFE1E4"/>
<path d="M56.5296 41.2308H65.345C65.435 41.2287 65.5236 41.2534 65.5996 41.3019C65.6756 41.3503 65.7357 41.4204 65.7722 41.5032L70.0446 50.318H75.7412C76.1282 50.2926 76.5161 50.3525 76.8777 50.4936C77.2393 50.6347 77.5659 50.8536 77.8347 51.135C78.0891 51.3982 78.2882 51.7102 78.4204 52.0525C78.5525 52.3948 78.6148 52.7603 78.6037 53.1273V62.0712M27.8615 62.5585H23.4324C23.304 62.5585 23.1809 62.5071 23.0901 62.4158C22.9993 62.3244 22.9482 62.2004 22.9482 62.0712V35.2539C22.9482 35.1899 22.9608 35.1266 22.9851 35.0674C23.0094 35.0083 23.0451 34.9546 23.0901 34.9093C23.135 34.8641 23.1884 34.8282 23.2472 34.8037C23.3059 34.7792 23.3689 34.7666 23.4324 34.7666H54.6925C54.7561 34.7666 54.819 34.7792 54.8778 34.8037C54.9365 34.8282 54.9899 34.8641 55.0349 34.9093C55.0798 34.9546 55.1155 35.0083 55.1398 35.0674C55.1642 35.1266 55.1767 35.1899 55.1767 35.2539V60.4802M64.3624 62.5585H41.4478M62.3828 40.3278L61.8986 37.9055H60.09L59.62 40.3278M30.653 49.8307V44.8428H36.1501C36.2748 44.8428 36.3943 44.7929 36.4824 44.7042C36.5706 44.6155 36.6201 44.4952 36.6201 44.3698V38.8372H41.5049V44.3698C41.5049 44.4952 41.5544 44.6155 41.6425 44.7042C41.7306 44.7929 41.8502 44.8428 41.9748 44.8428H47.472V49.8307H41.9748C41.8502 49.8307 41.7306 49.8805 41.6425 49.9692C41.5544 50.0579 41.5049 50.1782 41.5049 50.3037V55.8363H36.6201V50.232C36.6201 50.1066 36.5706 49.9863 36.4824 49.8976C36.3943 49.8089 36.2748 49.759 36.1501 49.759L30.653 49.8307ZM71.1555 67.9477C70.258 67.9534 69.379 67.6906 68.6303 67.1926C67.8815 66.6946 67.2966 65.9839 66.9498 65.1507C66.6031 64.3175 66.5102 63.3994 66.6829 62.513C66.8555 61.6266 67.286 60.8118 67.9196 60.1721C68.5533 59.5323 69.3615 59.0965 70.2417 58.9199C71.1219 58.7433 72.0344 58.8339 72.8633 59.1803C73.6923 59.5266 74.4003 60.113 74.8974 60.865C75.3946 61.6171 75.6585 62.5008 75.6557 63.4041C75.6557 64.6067 75.1821 65.7602 74.3385 66.6119C73.495 67.4636 72.3503 67.9439 71.1555 67.9477ZM34.498 67.9477C33.6045 67.9506 32.7303 67.6865 31.986 67.189C31.2417 66.6914 30.6609 65.9828 30.317 65.1529C29.9731 64.3229 29.8817 63.4089 30.0542 62.5265C30.2268 61.6442 30.6557 60.8333 31.2865 60.1964C31.9173 59.5596 32.7216 59.1254 33.5977 58.9489C34.4739 58.7724 35.3823 58.8616 36.2081 59.2051C37.0338 59.5485 37.7397 60.1309 38.2364 60.8784C38.7331 61.6259 38.9982 62.5049 38.9982 63.4041C38.987 64.5979 38.5079 65.7389 37.6651 66.5791C36.8224 67.4192 35.6842 67.8905 34.498 67.8904V67.9477Z" stroke="#A6777C" stroke-width="2" stroke-miterlimit="10" stroke-linecap="round" stroke-linejoin="round"/>
</svg>
