<svg width="16" height="16" viewBox="0 0 16 16" fill="none" xmlns="http://www.w3.org/2000/svg">
<g clip-path="url(#clip0_411_539)">
<path d="M3.93388 12.2078C4.30215 12.321 4.6759 12.4156 5.0537 12.4912V12.6511C5.0537 13.4129 5.0537 14.1747 5.06208 14.9365C5.06204 15.1282 5.10581 15.3173 5.19006 15.4895C5.26702 15.6297 5.37697 15.749 5.51039 15.8371C5.6438 15.9252 5.79668 15.9795 5.95578 15.9952C6.11489 16.011 6.27544 15.9877 6.42355 15.9275C6.57165 15.8673 6.70286 15.7718 6.80581 15.6495C7.68567 14.6988 8.58 13.745 9.45529 12.7806C9.53281 12.6821 9.63324 12.604 9.74781 12.5532C9.86239 12.5023 9.98766 12.4803 10.1127 12.4889C10.8397 12.527 11.5671 12.4214 12.2534 12.1783C12.9396 11.9352 13.5712 11.5592 14.1121 11.0719C15.1421 10.2014 15.7969 8.96736 15.9404 7.62639C16.0009 6.84074 16.016 6.05225 15.9853 5.26486C15.9727 4.62151 15.8267 3.98778 15.5564 3.40382C15.1431 2.38306 14.4287 1.51233 13.5084 0.907462C12.5881 0.30259 11.5055 -0.00776066 10.4045 0.0176887C9.32198 -0.015068 8.24024 0.00626197 7.16003 0.0138798C6.42777 -0.0156379 5.69433 0.00727416 4.96533 0.0824405C3.87831 0.204406 2.85298 0.650076 2.02225 1.36168C1.19152 2.07329 0.593697 3.01803 0.306262 4.07343C-0.0381338 5.2722 -0.0929619 6.53561 0.146288 7.75971C0.291643 8.78314 0.724746 9.74421 1.39517 10.531C2.06559 11.3178 2.94573 11.898 3.93311 12.204L3.93388 12.2078ZM7.33525 2.60928C7.9729 2.46807 8.63873 2.52959 9.23971 2.78525C9.50604 2.89432 9.7464 3.05828 9.94512 3.26645C10.1438 3.47463 10.2965 3.72234 10.3931 3.99344C10.4969 4.25831 10.5285 4.54603 10.4846 4.82713C10.4407 5.10823 10.3229 5.37261 10.1432 5.59319C9.88381 5.90678 9.59194 6.19201 9.27246 6.4441C9.17191 6.53095 9.07593 6.62541 8.97309 6.70997C8.89206 6.77694 8.82753 6.86166 8.78446 6.95755C8.7414 7.05345 8.72097 7.15797 8.72474 7.26302C8.72474 7.49156 8.71027 7.72466 8.70417 7.95548C8.70723 7.98307 8.70402 8.011 8.69479 8.03717C8.68555 8.06335 8.67052 8.0871 8.65082 8.10665C8.63112 8.12621 8.60725 8.14106 8.58101 8.1501C8.55477 8.15915 8.52682 8.16215 8.49925 8.15888H7.41295C7.38897 8.16245 7.3645 8.16052 7.34138 8.15324C7.31826 8.14596 7.2971 8.13352 7.27949 8.11687C7.26188 8.10021 7.24829 8.07977 7.23973 8.0571C7.23118 8.03442 7.22789 8.01009 7.23012 7.98596C7.20753 7.50707 7.24489 7.02723 7.34134 6.55761C7.39779 6.3268 7.51664 6.11596 7.68491 5.94818C7.83726 5.78821 8.00485 5.6389 8.16483 5.49111C8.3248 5.34333 8.52287 5.1704 8.70722 5.0249C8.79298 4.95721 8.85978 4.86851 8.90115 4.76739C8.94252 4.66628 8.95705 4.55618 8.94333 4.4478C8.92961 4.33941 8.8881 4.23641 8.82284 4.1488C8.75758 4.06118 8.67078 3.99192 8.57086 3.94774C8.44051 3.87612 8.2965 3.83288 8.14826 3.82083C8.00003 3.80879 7.85092 3.82822 7.71072 3.87786C7.57052 3.92749 7.4424 4.00621 7.33476 4.10884C7.22713 4.21147 7.1424 4.33569 7.08615 4.47337C7.05041 4.56605 7.01989 4.66066 6.99473 4.75675C6.95969 4.89006 6.90027 4.93653 6.76619 4.91673L5.69132 4.79332C5.66367 4.79253 5.63653 4.78564 5.61186 4.77312C5.58719 4.76061 5.5656 4.74279 5.54863 4.72094C5.53166 4.6991 5.51974 4.67376 5.51372 4.64676C5.5077 4.61976 5.50774 4.59177 5.51382 4.56478C5.56111 4.08372 5.76525 3.63156 6.09479 3.27792C6.42433 2.92429 6.861 2.68881 7.33753 2.60776L7.33525 2.60928ZM7.23317 9.7891C7.23314 9.61253 7.29445 9.44144 7.40662 9.30507C7.51878 9.16871 7.67483 9.07554 7.84808 9.0415C8.02134 9.00745 8.20104 9.03466 8.35646 9.11845C8.51188 9.20224 8.63337 9.33741 8.70015 9.50087C8.76693 9.66432 8.77486 9.84589 8.72258 10.0145C8.6703 10.1832 8.56106 10.3284 8.41353 10.4255C8.26601 10.5225 8.08937 10.5652 7.9138 10.5464C7.73824 10.5276 7.57466 10.4484 7.45104 10.3223C7.311 10.1802 7.2327 9.98861 7.23317 9.7891Z" fill="#8D99A6"/>
</g>
<defs>
<clipPath id="clip0_411_539">
<rect width="16" height="16" fill="white"/>
</clipPath>
</defs>
</svg>
