<svg width="20" height="20" viewBox="0 0 20 20" fill="none" xmlns="http://www.w3.org/2000/svg">
<path fill-rule="evenodd" clip-rule="evenodd" d="M9.20043 7.80541V14.9232H10.7857V7.80541H9.20043ZM9.20043 5.0758V6.8711H10.7857V5.0758H9.20043ZM1.68579 4.44357C0.58686 6.08792 0.000200026 8.02122 5.10406e-08 9.99899C-0.000132633 11.3123 0.258427 12.6128 0.760914 13.8261C1.2634 15.0395 1.99997 16.142 2.92857 17.0707C3.85717 17.9994 4.95961 18.7361 6.17293 19.2387C7.38625 19.7413 8.68669 20 10 20C11.9778 20 13.9111 19.4135 15.5556 18.3148C17.2001 17.216 18.4818 15.6543 19.2387 13.8271C19.9956 11.9999 20.1937 9.98925 19.8079 8.04947C19.4222 6.10969 18.4698 4.32786 17.0714 2.92929C15.673 1.53073 13.8913 0.578241 11.9515 0.192275C10.0118 -0.193691 8.00114 0.00419777 6.17386 0.760919C4.34659 1.51764 2.78473 2.79921 1.68579 4.44357ZM3.00458 14.6693C2.08016 13.2871 1.58625 11.6619 1.58526 9.99905C1.58708 7.76788 2.47422 5.6286 4.05191 4.05092C5.62959 2.47324 7.76886 1.5861 10 1.58427C11.6629 1.58526 13.2881 2.07917 14.6703 3.00359C16.0525 3.92804 17.1297 5.24152 17.7656 6.77801C18.4015 8.3145 18.5676 10.005 18.243 11.6359C17.9184 13.2668 17.1175 14.7648 15.9417 15.9407C14.7658 17.1165 13.2678 17.9174 11.6369 18.242C10.006 18.5667 8.31548 18.4005 6.77899 17.7646C5.2425 17.1287 3.92902 16.0515 3.00458 14.6693ZM10.0994 18.6014C10.6264 18.595 11.1541 18.5402 11.6758 18.4364C13.3451 18.1041 14.8784 17.2843 16.082 16.0808C17.2855 14.8773 18.1052 13.3439 18.4375 11.6746C18.7698 10.0053 18.5998 8.27493 17.9489 6.70224C17.298 5.12955 16.1954 3.78512 14.7806 2.83889C13.6034 2.05158 12.254 1.56936 10.8535 1.42902C12.254 1.56939 13.6033 2.0516 14.7804 2.83888C16.1953 3.78511 17.2978 5.12953 17.9487 6.70223C18.5996 8.27492 18.7696 10.0053 18.4373 11.6746C18.105 13.3439 17.2853 14.8772 16.0818 16.0808C14.8782 17.2843 13.3449 18.1041 11.6756 18.4364C11.1539 18.5402 10.6263 18.595 10.0994 18.6014ZM0.198157 9.99901C0.198353 8.06043 0.773388 6.16544 1.85055 4.55367C2.92771 2.9419 4.45861 1.68572 6.24968 0.943998C7.63324 0.371031 9.12405 0.124923 10.6072 0.216981C9.12411 0.124957 7.63338 0.371068 6.24987 0.94401C4.45881 1.68574 2.9279 2.94191 1.85074 4.55368C0.773581 6.16546 0.198547 8.06044 0.198351 9.99902C0.198221 11.2863 0.451657 12.561 0.944187 13.7503C1.43672 14.9397 2.15869 16.0203 3.06889 16.9306C3.97909 17.8409 5.05968 18.563 6.24896 19.0556C7.06692 19.3945 7.92528 19.6202 8.80035 19.7282C7.92521 19.6202 7.06679 19.3945 6.24877 19.0556C5.05949 18.563 3.9789 17.8409 3.0687 16.9306C2.1585 16.0203 1.43652 14.9396 0.943993 13.7503C0.451463 12.561 0.198027 11.2863 0.198157 9.99901ZM9.39878 14.7251H9.39859V8.00357H10.5875V8.00358H9.39878V14.7251ZM9.39878 6.67294H9.39859V5.27396H10.5875V5.27397H9.39878V6.67294Z" fill="#01395A"/>
</svg>
