<svg width="101" height="101" viewBox="0 0 101 101" fill="none" xmlns="http://www.w3.org/2000/svg">
<rect width="101" height="101" rx="50.5" fill="#E3F6F3"/>
<path d="M72.6846 59.5692H44.6846V51.4802C44.6846 50.3557 45.092 49.2771 45.8175 48.4809C46.5429 47.6848 47.5273 47.2361 48.5546 47.2332H64.8646C66.9395 47.2361 68.9285 48.1403 70.3948 49.7473C71.861 51.3543 72.6846 53.5326 72.6846 55.8038V59.5692Z" stroke="#4D6F69" stroke-width="2" stroke-miterlimit="10" stroke-linecap="round"/>
<path d="M37.6953 58.6497C40.3407 58.6497 42.4853 56.3023 42.4853 53.4066C42.4853 50.511 40.3407 48.1636 37.6953 48.1636C35.0498 48.1636 32.9053 50.511 32.9053 53.4066C32.9053 56.3023 35.0498 58.6497 37.6953 58.6497Z" stroke="#4D6F69" stroke-width="2" stroke-miterlimit="10" stroke-linecap="round"/>
<path d="M28.3154 35.4443V73.306" stroke="#4D6F69" stroke-width="2" stroke-miterlimit="10" stroke-linecap="round"/>
<path d="M72.6846 73.3063V63.7068H29.4346" stroke="#4D6F69" stroke-width="2" stroke-miterlimit="10" stroke-linecap="round"/>
<path d="M58.4461 33.258C59.1199 31.8562 60.065 30.6321 61.2154 29.671C62.3657 28.71 63.6938 28.0352 65.1069 27.6936C62.8602 30.1772 61.5445 33.4917 61.419 36.9841C61.3976 37.3274 61.3976 37.6718 61.419 38.015C61.4296 38.1075 61.4694 38.193 61.5316 38.2565C61.5938 38.3201 61.6745 38.3577 61.7595 38.3628H63.87L59.0929 44.9457L54.4746 38.2262H56.8235C56.8691 38.2279 56.9146 38.2194 56.9572 38.2015C56.9998 38.1835 57.0387 38.1563 57.0715 38.1215C57.1044 38.0868 57.1305 38.0451 57.1483 37.9991C57.1661 37.9531 57.1752 37.9036 57.1752 37.8536C57.3116 36.2436 57.7439 34.6805 58.4461 33.258V33.258Z" stroke="#4D6F69" stroke-width="2" stroke-linecap="round" stroke-linejoin="round"/>
</svg>
