<svg width="16" height="16" viewBox="0 0 16 16" fill="none" xmlns="http://www.w3.org/2000/svg">
<path d="M4.65108 0L6.86072 1.14901C7.70603 1.6007 8.41179 2.27487 8.9017 3.09862C9.3916 3.92238 9.64701 4.86438 9.6403 5.82278V13.3051C10.2803 13.279 10.885 13.0045 11.326 12.5399C11.767 12.0753 12.0096 11.4571 12.0023 10.8166V7.48763H13.2732L13.0355 7.7345C12.8862 7.89334 12.803 8.10316 12.803 8.3212C12.803 8.53924 12.8862 8.74906 13.0355 8.9079C13.1083 8.98437 13.1958 9.04525 13.2928 9.08685C13.3898 9.12846 13.4942 9.14991 13.5997 9.14991C13.7053 9.14991 13.8097 9.12846 13.9067 9.08685C14.0037 9.04525 14.0912 8.98437 14.164 8.9079L15.7221 7.28572C15.8085 7.20675 15.8778 7.11088 15.9255 7.00404C15.9733 6.89721 15.9987 6.78169 15.9999 6.66466C16.0012 6.54763 15.9784 6.43159 15.933 6.32373C15.8876 6.21587 15.8205 6.11849 15.7359 6.03765L15.7282 6.02927L14.1647 4.40404C14.0926 4.32648 14.0053 4.26461 13.9082 4.22231C13.8112 4.18001 13.7064 4.15817 13.6005 4.15817C13.4946 4.15817 13.3898 4.18001 13.2928 4.22231C13.1957 4.26461 13.1084 4.32648 13.0363 4.40404C12.885 4.56311 12.8006 4.77425 12.8006 4.99379C12.8006 5.21333 12.885 5.42447 13.0363 5.58353L13.2649 5.82278H12.0031V2.49461C12.0111 1.84592 11.763 1.22023 11.3127 0.753231C10.8624 0.286235 10.2462 0.0155925 9.59763 0L4.65108 0ZM1.69245 0.645367C1.23067 0.687329 0.801206 0.900191 0.488177 1.24225C0.175147 1.58432 0.00111177 2.03093 0.000166251 2.49461V10.6207C-0.00636839 11.3254 0.179848 12.0184 0.538682 12.6249C0.897515 13.2314 1.41531 13.7282 2.03608 14.0617L5.40998 15.8142C5.68823 15.9449 5.99515 16.0029 6.30193 15.9826C6.60872 15.9622 6.90531 15.8643 7.16388 15.698C7.42246 15.5316 7.63453 15.3023 7.78022 15.0316C7.9259 14.7608 8.00042 14.4575 7.99678 14.1501V5.82354C8.0018 5.17747 7.83003 4.54233 7.50005 3.98686C7.17007 3.4314 6.69445 2.97675 6.12468 2.67214L2.58621 0.828996C2.31138 0.685246 2.00169 0.621618 1.69245 0.645367Z" fill="#8D99A6"/>
</svg>
