<svg width="101" height="101" viewBox="0 0 101 101" fill="none" xmlns="http://www.w3.org/2000/svg">
<rect width="101" height="101" rx="50.5" fill="#FBEFFF"/>
<path d="M72.6797 56.9584H44.6797V48.8693C44.6797 47.743 45.0885 46.6627 45.8161 45.8662C46.5438 45.0698 47.5306 44.6223 48.5597 44.6223H64.8697C66.9446 44.6252 68.9336 45.5295 70.3999 47.1365C71.8661 48.7435 72.6897 50.9218 72.6897 53.193L72.6797 56.9584Z" stroke="#846F8B" stroke-width="2" stroke-miterlimit="10" stroke-linecap="round"/>
<path d="M37.6894 56.0387C40.3348 56.0387 42.4794 53.6913 42.4794 50.7956C42.4794 47.8999 40.3348 45.5525 37.6894 45.5525C35.044 45.5525 32.8994 47.8999 32.8994 50.7956C32.8994 53.6913 35.044 56.0387 37.6894 56.0387Z" stroke="#846F8B" stroke-width="2" stroke-miterlimit="10" stroke-linecap="round"/>
<path d="M28.3096 32.8335V70.6843" stroke="#846F8B" stroke-width="2" stroke-miterlimit="10" stroke-linecap="round"/>
<path d="M72.6797 70.6843V61.0847H29.4297" stroke="#846F8B" stroke-width="2" stroke-miterlimit="10" stroke-linecap="round"/>
<path d="M59.1996 32.921C59.2399 32.921 59.2797 32.9122 59.3168 32.895C59.3539 32.8778 59.3874 32.8527 59.4154 32.821C59.4434 32.7893 59.4653 32.7518 59.4797 32.7107C59.4942 32.6696 59.501 32.6257 59.4996 32.5817V30.3159L64.8696 34.8912L59.5196 39.4447V37.3869C59.5156 37.3107 59.4874 37.2384 59.44 37.1825C59.3925 37.1265 59.3288 37.0905 59.2596 37.0804C58.9834 37.0574 58.7059 37.0574 58.4296 37.0804C55.6297 37.1048 52.9396 38.2764 50.8896 40.3641C51.1856 39.0052 51.7487 37.7331 52.5397 36.6367C53.3307 35.5403 54.3305 34.6458 55.4696 34.0156C56.633 33.3797 57.9017 33.0074 59.1996 32.921V32.921Z" stroke="#846F8B" stroke-width="2" stroke-linecap="round" stroke-linejoin="round"/>
</svg>
