<svg width="102" height="102" viewBox="0 0 102 102" fill="none" xmlns="http://www.w3.org/2000/svg">
<rect x="0.5" y="0.518555" width="101" height="101" rx="50.5" fill="#FFE1E4"/>
<path d="M67.412 58.7305C66.9723 58.4374 66.5327 58.1443 66.0198 57.778L64.4079 56.8255C63.9683 56.6057 63.5287 56.3859 63.0158 56.0928L62.5029 55.7997C62.0633 55.5799 61.5504 55.2868 61.0375 55.067C60.4286 54.7596 59.7904 54.5141 59.1325 54.3343L58.3265 54.1145L57.9601 54.7007C57.5938 55.2135 54.2234 58.4374 50.9995 61.3682C47.7756 58.3642 44.4052 55.2135 44.0389 54.7007L43.6725 54.1145L42.8666 54.4076C42.2257 54.5681 41.6096 54.8146 41.0348 55.1403C40.5219 55.3601 40.009 55.6532 39.4961 55.873L38.91 56.1661L38.4704 56.3859L36.7852 57.3384C36.0525 57.778 35.3198 58.2176 34.7336 58.6572C33.3236 59.5485 32.1637 60.784 31.3632 62.2475C30.8696 63.5807 30.694 65.0108 30.8503 66.4238V70.8933C30.8503 71.6512 31.1514 72.378 31.6873 72.9139C32.2231 73.4498 32.95 73.7508 33.7078 73.7508H68.2912C69.0491 73.7508 69.7759 73.4498 70.3118 72.9139C70.8477 72.378 71.1487 71.6512 71.1487 70.8933V66.4971C71.305 65.084 71.1294 63.654 70.6358 62.3207C69.8872 60.8671 68.7769 59.6307 67.412 58.7305V58.7305Z" stroke="#A6777C" stroke-width="2" stroke-miterlimit="10"/>
<path d="M41.0859 42.003C41.1 42.3002 41.1467 42.5951 41.2252 42.8822C41.2252 43.0214 41.2911 43.1533 41.2911 43.2925C41.3238 43.896 41.509 44.4814 41.8293 44.9939C42.1497 45.5064 42.5947 45.9294 43.1228 46.2233C43.1228 46.2427 43.1306 46.2614 43.1443 46.2751C43.158 46.2888 43.1767 46.2966 43.1961 46.2966C43.7077 48.5501 45.0365 50.5341 46.9255 51.8651C47.1604 52.0356 47.405 52.1922 47.6582 52.334C48.0026 52.5392 48.4715 52.6784 48.8819 52.8835H48.9478C49.2985 53.035 49.6645 53.148 50.0395 53.2206C50.3292 53.2752 50.6241 53.2974 50.9188 53.2865H51.1239C51.4186 53.3 51.7138 53.2779 52.0031 53.2206C52.36 53.1696 52.7048 53.0555 53.0216 52.8835H53.0949C53.5408 52.7406 53.9725 52.5566 54.3844 52.334C54.6428 52.2009 54.8881 52.0439 55.1171 51.8651C56.1175 51.1774 56.9716 50.2983 57.6303 49.2787C57.9437 48.7587 58.2157 48.2148 58.4436 47.6521C58.5095 47.4469 58.5755 47.1758 58.6487 46.9707C58.6935 46.7617 58.7598 46.5579 58.8466 46.3625C58.9884 46.1877 59.148 46.0281 59.3228 45.8863C59.462 45.8203 59.528 45.6811 59.6672 45.6152C60.004 45.3062 60.2759 44.9333 60.4671 44.5182C60.6583 44.1031 60.765 43.654 60.7809 43.1973C60.7809 43.058 60.8468 42.9262 60.8468 42.7869C60.9128 42.5158 60.9128 42.1788 60.986 41.9077V41.175C61.0256 40.7408 60.9206 40.3058 60.6874 39.9374C60.4542 39.5691 60.1058 39.2881 59.6965 39.1381V38.7278C59.7028 38.4519 59.7472 38.1782 59.8284 37.9145C60.041 37.1157 60.1542 36.2938 60.1654 35.4673C60.2413 34.1984 59.9239 32.937 59.2565 31.8552C58.589 30.7734 57.6041 29.9239 56.436 29.4225C56.1649 29.2906 55.8938 29.2247 55.6227 29.0855C54.1428 28.541 52.5761 28.2704 50.9993 28.2868H49.9809C48.8231 28.3018 47.678 28.5303 46.6032 28.9609C46.4828 29.0152 46.3696 29.0841 46.2661 29.1661C45.8228 29.4534 45.4395 29.8242 45.1378 30.2578C45.0718 30.3237 45.0059 30.3897 45.0059 30.4556C44.9078 30.6056 44.7922 30.7434 44.6615 30.8659C44.4327 31.0473 44.1874 31.2067 43.9288 31.3422C43.4415 31.5453 43.0347 31.9032 42.7711 32.3606C42.4335 33.1576 42.2423 34.009 42.207 34.8738C42.1567 35.7558 42.1787 36.6404 42.2729 37.5188C42.2877 37.8833 42.3319 38.2459 42.4048 38.6032C42.4781 38.8084 42.4781 39.0135 42.544 39.2846H42.4781C42.0391 39.4177 41.6615 39.7019 41.412 40.0868C41.1626 40.4717 41.0574 40.9325 41.1152 41.3875V42.003H41.0859Z" stroke="#A6777C" stroke-width="2" stroke-miterlimit="10"/>
<path d="M38.3964 56.679L39.4149 60.3424C38.5457 60.6398 37.8172 61.248 37.3695 62.0501C36.9218 62.8522 36.7865 63.7915 36.9896 64.6873L37.8542 68.0578L39.598 67.4423" stroke="#A6777C" stroke-width="2" stroke-miterlimit="10"/>
<path d="M39.5996 60.2618C39.5996 60.2618 42.97 59.4266 43.798 62.3647C44.6259 65.3028 44.7798 65.911 44.7798 65.911L43.2045 66.4532" stroke="#A6777C" stroke-width="2" stroke-miterlimit="10"/>
<path d="M64.7086 57.2576L63.1113 61.6757" stroke="#A6777C" stroke-width="2" stroke-miterlimit="10"/>
<path d="M61.9385 67.1415C63.4682 67.1415 64.7081 65.9015 64.7081 64.3719C64.7081 62.8423 63.4682 61.6023 61.9385 61.6023C60.4089 61.6023 59.1689 62.8423 59.1689 64.3719C59.1689 65.9015 60.4089 67.1415 61.9385 67.1415Z" stroke="#A6777C" stroke-width="2" stroke-miterlimit="10"/>
</svg>
