<svg width="102" height="102" viewBox="0 0 102 102" fill="none" xmlns="http://www.w3.org/2000/svg">
<rect x="0.69043" y="0.927734" width="101" height="101" rx="50.5" fill="#FBEFFF"/>
<path d="M27.8184 72.9174H56.077M46.3345 58.2602L47.7784 49.254L50.9883 52.2197L57.7403 54.6972L58.4363 52.1003L52.4945 49.2281L48.5731 44.3978L41.0056 42.1956L29.1064 58.2602M64.8144 68.2117L57.2313 59.5016L27.8184 60.4365V69.2297H57.2313L61.7863 71.998H74.5633V68.2117H64.8144ZM64.5962 63.7034C65.8104 63.7034 66.9974 63.3434 68.007 62.6688C69.0165 61.9942 69.8034 61.0354 70.2681 59.9136C70.7327 58.7918 70.8543 57.5574 70.6174 56.3666C70.3806 55.1757 69.7959 54.0818 68.9373 53.2232C68.0787 52.3646 66.9848 51.7799 65.7939 51.543C64.603 51.3062 63.3687 51.4277 62.2469 51.8924C61.1251 52.3571 60.1663 53.1439 59.4917 54.1535C58.8171 55.1631 58.4571 56.35 58.4571 57.5642C58.457 59.1862 59.0988 60.7422 60.2423 61.8925C61.3858 63.0428 62.938 63.6938 64.5599 63.7034H64.5962ZM44.257 36.0772C44.256 37.2928 44.6156 38.4815 45.2903 39.4927C45.9651 40.504 46.9247 41.2923 48.0476 41.758C49.1706 42.2237 50.4064 42.3458 51.5988 42.1089C52.7912 41.872 53.8864 41.2867 54.7461 40.4271C55.6057 39.5675 56.191 38.4722 56.4279 37.2798C56.6648 36.0874 56.5427 34.8516 56.077 33.7286C55.6113 32.6057 54.823 31.6461 53.8117 30.9713C52.8005 30.2966 51.6118 29.937 50.3962 29.938C48.768 29.938 47.2064 30.5848 46.0551 31.7361C44.9038 32.8874 44.257 34.4489 44.257 36.0772Z" stroke="#846F8B" stroke-width="2" stroke-miterlimit="10" stroke-linecap="round" stroke-linejoin="round"/>
</svg>
