<svg width="16" height="16" viewBox="0 0 16 16" fill="none" xmlns="http://www.w3.org/2000/svg">
<path d="M15.8514 12.9326C15.7986 12.6772 15.6767 12.4411 15.4992 12.2501C15.3216 12.0591 15.095 11.9204 14.8442 11.8491L12.6217 11.187V12.2407C12.8413 12.2895 13.0352 12.4175 13.1663 12.6002C13.2975 12.7829 13.3567 13.0076 13.3326 13.2312V14.435H12.3848V13.2922C12.3848 13.0217 12.2659 12.9912 12.1478 12.9912C12.0297 12.9912 11.9109 13.0217 11.9109 13.2922V14.435H10.963V13.2312C10.9517 13.01 11.0158 12.7914 11.145 12.6115C11.2741 12.4315 11.4607 12.3008 11.6739 12.2407V10.9158L11.2594 10.7634C11.0522 10.6832 10.8537 10.5824 10.6667 10.4625C10.4647 10.4062 10.2914 10.2757 10.1815 10.0971C10.0716 9.91856 10.0332 9.70508 10.0739 9.49941V9.07807C10.0739 8.68645 10.6072 8.2354 10.755 7.7234C10.8439 7.48264 10.9328 7.21166 11.0217 6.91045C11.1911 6.80375 11.3365 6.66308 11.4488 6.49731C11.561 6.33155 11.6377 6.1443 11.6739 5.94741C11.732 5.75581 11.7462 5.55358 11.7155 5.35573C11.6848 5.15788 11.6099 4.96949 11.4964 4.80455C11.5201 4.65517 11.53 4.50394 11.5261 4.35274C11.4998 3.42353 11.1206 2.53921 10.4656 1.87956C9.8106 1.21991 8.929 0.834438 8 0.801501C7.5311 0.78785 7.06439 0.870567 6.62874 1.04453C6.1931 1.2185 5.79778 1.48001 5.46726 1.81288C5.13674 2.14576 4.87805 2.54292 4.70718 2.97979C4.53632 3.41666 4.45692 3.88395 4.4739 4.35274C4.46901 4.50395 4.47896 4.65528 4.50362 4.80455C4.39706 4.97261 4.32631 5.16084 4.29576 5.35748C4.26522 5.55412 4.27554 5.75494 4.32609 5.94741C4.4076 6.34203 4.6421 6.6883 4.97828 6.91045L5.24495 7.7234C5.42247 8.2354 5.3341 8.71388 5.9261 9.07807V9.49941C5.89551 9.67888 5.82677 9.8497 5.7245 10.0003C5.62224 10.151 5.48885 10.2779 5.33333 10.3726C5.06106 10.5521 4.76047 10.6845 4.44419 10.7642L4.29562 10.7946V11.9375C4.53805 12.0328 4.74652 12.1982 4.89434 12.4127C5.04216 12.6271 5.12259 12.8809 5.12533 13.1413C5.12533 13.4792 4.99112 13.8032 4.75221 14.0421C4.51331 14.281 4.18929 14.4152 3.85143 14.4152C3.51357 14.4152 3.18954 14.281 2.95064 14.0421C2.71173 13.8032 2.57752 13.4792 2.57752 13.1413C2.58026 12.8809 2.66069 12.6271 2.80851 12.4127C2.95633 12.1982 3.16481 12.0328 3.40724 11.9375V11.0964L0.977522 11.8788C0.745806 11.9492 0.540314 12.0871 0.387248 12.2747C0.234181 12.4624 0.140479 12.6914 0.118094 12.9326L0 15.28H16L15.8514 12.9326Z" fill="#8D99A6"/>
</svg>
