<svg width="16" height="16" viewBox="0 0 16 16" fill="none" xmlns="http://www.w3.org/2000/svg">
<path d="M12.2288 9.62682V3.76051H8.97502C8.91329 3.76051 8.85218 3.74827 8.79521 3.72448C8.73825 3.7007 8.68657 3.66585 8.64316 3.62195C8.59976 3.57805 8.5655 3.52598 8.54236 3.46875C8.51923 3.41152 8.50768 3.35026 8.50839 3.28854V0.000732423H2.06678C2.00504 0.000728391 1.94392 0.0129727 1.88696 0.0367563C1.82999 0.0605398 1.77831 0.0953901 1.73491 0.139288C1.6915 0.183186 1.65725 0.235259 1.63411 0.292491C1.61098 0.349723 1.59942 0.410977 1.60013 0.472704V13.3193C1.59942 13.381 1.61098 13.4423 1.63411 13.4995C1.65725 13.5567 1.6915 13.6088 1.73491 13.6527C1.77831 13.6966 1.82999 13.7314 1.88696 13.7552C1.94392 13.779 2.00504 13.7912 2.06678 13.7912H7.89176C8.14572 14.5277 8.65376 15.1497 9.32476 15.5455C9.99577 15.9414 10.7858 16.0852 11.5533 15.9513C12.3208 15.8173 13.0154 15.4143 13.5127 14.8146C14.0099 14.2149 14.2772 13.4576 14.2667 12.6786C14.262 12.0269 14.0668 11.3908 13.705 10.8486C13.3433 10.3065 12.8308 9.88201 12.2308 9.62749L12.2288 9.62682ZM4.21864 2.80057H6.5385C6.66368 2.80057 6.78373 2.85029 6.87224 2.9388C6.96076 3.02731 7.01048 3.14736 7.01048 3.27254C7.01048 3.39771 6.96076 3.51776 6.87224 3.60627C6.78373 3.69478 6.66368 3.74451 6.5385 3.74451H4.21864C4.15691 3.74451 4.09579 3.73227 4.03883 3.70848C3.98186 3.6847 3.93018 3.64985 3.88678 3.60595C3.84337 3.56205 3.80912 3.50998 3.78598 3.45275C3.76285 3.39552 3.7513 3.33426 3.75201 3.27254C3.75402 3.14891 3.80367 3.03082 3.8906 2.9429C3.97753 2.85497 4.09505 2.80398 4.21864 2.80057ZM4.21864 5.36308H9.59233C9.7175 5.36308 9.83755 5.4128 9.92606 5.50132C10.0146 5.58983 10.0643 5.70988 10.0643 5.83505C10.0643 5.96023 10.0146 6.08027 9.92606 6.16879C9.83755 6.2573 9.7175 6.30702 9.59233 6.30702H4.21864C4.15691 6.30703 4.09579 6.29478 4.03883 6.271C3.98186 6.24721 3.93018 6.21237 3.88678 6.16847C3.84337 6.12457 3.80912 6.07249 3.78598 6.01526C3.76285 5.95803 3.7513 5.89678 3.75201 5.83505C3.75402 5.71142 3.80367 5.59334 3.8906 5.50541C3.97753 5.41748 4.09505 5.3665 4.21864 5.36308ZM4.21864 7.92559H9.59233C9.65406 7.92559 9.71517 7.93783 9.77214 7.96162C9.8291 7.9854 9.88078 8.02025 9.92419 8.06415C9.96759 8.10805 10.0018 8.16012 10.025 8.21735C10.0481 8.27458 10.0597 8.33584 10.059 8.39756C10.057 8.52119 10.0073 8.63928 9.92037 8.7272C9.83344 8.81513 9.71593 8.86612 9.59233 8.86954H4.21864C4.15691 8.86954 4.09579 8.85729 4.03883 8.83351C3.98186 8.80973 3.93018 8.77488 3.88678 8.73098C3.84337 8.68708 3.80912 8.63501 3.78598 8.57778C3.76285 8.52054 3.7513 8.45929 3.75201 8.39756C3.75368 8.2737 3.80317 8.15528 3.89014 8.06707C3.97711 7.97886 4.09482 7.92769 4.21864 7.92426V7.92559ZM7.12247 11.432H4.21864C4.15691 11.4321 4.09579 11.4198 4.03883 11.396C3.98186 11.3722 3.93018 11.3374 3.88678 11.2935C3.84337 11.2496 3.80912 11.1975 3.78598 11.1403C3.76285 11.0831 3.7513 11.0218 3.75201 10.9601C3.75402 10.8364 3.80367 10.7184 3.8906 10.6304C3.97753 10.5425 4.09505 10.4915 4.21864 10.4881H7.12247C7.24765 10.4881 7.36769 10.5378 7.4562 10.6263C7.54472 10.7149 7.59444 10.8349 7.59444 10.9601C7.59444 11.0853 7.54472 11.2053 7.4562 11.2938C7.36769 11.3823 7.24765 11.432 7.12247 11.432ZM10.9776 15.0565C10.5095 15.0619 10.0505 14.9281 9.6587 14.672C9.26692 14.4159 8.96012 14.0491 8.77728 13.6183C8.59444 13.1874 8.54381 12.7119 8.63183 12.2522C8.71986 11.7925 8.94256 11.3693 9.27164 11.0365C9.60071 10.7037 10.0213 10.4762 10.48 10.3829C10.9387 10.2897 11.4147 10.3349 11.8476 10.5128C12.2805 10.6908 12.6508 10.9934 12.9113 11.3822C13.1718 11.7711 13.3109 12.2286 13.3108 12.6966C13.3117 13.3181 13.0669 13.9147 12.6299 14.3564C12.1929 14.7982 11.599 15.0494 10.9776 15.0552V15.0565Z" fill="#8D99A6"/>
<path d="M12.1445 3.06315L9.1634 0.078662C9.12896 0.0457651 9.08902 0.0191437 9.04541 0V3.18048H12.2259C12.2066 3.14115 12.1672 3.10181 12.1472 3.06248L12.1445 3.06315Z" fill="#8D99A6"/>
<path d="M11.6456 11.9314L10.751 12.826L10.4576 12.5327C10.3798 12.4549 10.2743 12.4112 10.1643 12.4112C10.0543 12.4112 9.9488 12.4549 9.87101 12.5327C9.79321 12.6104 9.74951 12.716 9.74951 12.826C9.74951 12.936 9.79321 13.0415 9.87101 13.1193L10.471 13.7192C10.5093 13.7577 10.5551 13.7879 10.6056 13.8081C10.656 13.8283 10.71 13.838 10.7643 13.8366C10.8733 13.8356 10.978 13.7937 11.0576 13.7192L12.2575 12.5193C12.335 12.4414 12.3785 12.3359 12.3785 12.226C12.3785 12.1161 12.335 12.0106 12.2575 11.9327C12.1739 11.8548 12.0638 11.8115 11.9496 11.8115C11.8353 11.8115 11.7252 11.8548 11.6416 11.9327L11.6456 11.9314Z" fill="#8D99A6"/>
</svg>
