<svg width="102" height="102" viewBox="0 0 102 102" fill="none" xmlns="http://www.w3.org/2000/svg">
<rect x="0.69043" y="0.857422" width="101" height="101" rx="50.5" fill="#FFEFC1"/>
<path d="M38.0469 36.0933H44.1818" stroke="#8B7F5D" stroke-width="2" stroke-linecap="round" stroke-linejoin="round"/>
<path d="M38.0469 75.2432H44.1818" stroke="#8B7F5D" stroke-width="2" stroke-linecap="round" stroke-linejoin="round"/>
<path d="M32.0645 68.7012H44.1813" stroke="#8B7F5D" stroke-width="2" stroke-linecap="round" stroke-linejoin="round"/>
<path d="M28.5576 62.1958H44.182" stroke="#8B7F5D" stroke-width="2" stroke-linecap="round" stroke-linejoin="round"/>
<path d="M32.0645 42.624H44.1813" stroke="#8B7F5D" stroke-width="2" stroke-linecap="round" stroke-linejoin="round"/>
<path d="M28.5576 49.1479H44.182" stroke="#8B7F5D" stroke-width="2" stroke-linecap="round" stroke-linejoin="round"/>
<path d="M26.7334 55.6714H44.1817" stroke="#8B7F5D" stroke-width="2" stroke-linecap="round" stroke-linejoin="round"/>
<path d="M53.0596 29.6328V36.3226" stroke="#8B7F5D" stroke-width="2" stroke-linecap="round" stroke-linejoin="round"/>
<path d="M58.6325 25.354H47.3574V29.3398H58.6325V25.354Z" stroke="#8B7F5D" stroke-width="2" stroke-linecap="round" stroke-linejoin="round"/>
<path d="M61.3243 43.7651L55.3105 51.9217" stroke="#8B7F5D" stroke-width="2" stroke-linecap="round" stroke-linejoin="round"/>
<path d="M53.1166 58.9495C55.1911 58.9495 56.8728 57.2677 56.8728 55.1932C56.8728 53.1187 55.1911 51.437 53.1166 51.437C51.0421 51.437 49.3604 53.1187 49.3604 55.1932C49.3604 57.2677 51.0421 58.9495 53.1166 58.9495Z" stroke="#8B7F5D" stroke-width="2" stroke-linecap="round" stroke-linejoin="round"/>
<path d="M63.7793 40.411L66.2346 36.9736" stroke="#8B7F5D" stroke-width="2" stroke-linecap="round" stroke-linejoin="round"/>
<path d="M70.1436 49.3644L74.4355 48.0762" stroke="#8B7F5D" stroke-width="2" stroke-linecap="round" stroke-linejoin="round"/>
<path d="M70.3662 60.2129L73.8992 61.6031" stroke="#8B7F5D" stroke-width="2" stroke-linecap="round" stroke-linejoin="round"/>
<path d="M63.5566 69.4531L65.8588 72.6418" stroke="#8B7F5D" stroke-width="2" stroke-linecap="round" stroke-linejoin="round"/>
<path d="M53.3076 72.4819V76.9907" stroke="#8B7F5D" stroke-width="2" stroke-linecap="round" stroke-linejoin="round"/>
<path d="M52.9004 31.8652C58.9335 31.8652 64.7195 34.2619 68.9855 38.5279C73.2516 42.794 75.6482 48.5799 75.6482 54.613C75.6482 60.6461 73.2516 66.4321 68.9855 70.6982C64.7195 74.9642 58.9335 77.3608 52.9004 77.3608" stroke="#8B7F5D" stroke-width="2" stroke-linecap="round" stroke-linejoin="round"/>
</svg>
