<svg width="102" height="102" viewBox="0 0 102 102" fill="none" xmlns="http://www.w3.org/2000/svg">
<rect x="0.914062" y="0.518555" width="101" height="101" rx="50.5" fill="#FFEFC1"/>
<path d="M49.2015 50.9127L27.4931 47.7344C27.2287 47.701 26.973 47.6105 26.7409 47.468C26.418 47.2618 26.1509 46.9653 25.9673 46.6089C25.7836 46.2525 25.6898 45.8491 25.6956 45.4399V38.4899C25.6956 37.8942 25.9117 37.323 26.2966 36.9017C26.6814 36.4805 27.2033 36.2439 27.7475 36.2439H75.0802C75.6244 36.2439 76.1463 36.4805 76.5311 36.9017C76.9159 37.323 77.1321 37.8942 77.1321 38.4899V45.5065C77.1308 45.9165 77.0271 46.3182 76.8321 46.6683C76.6371 47.0183 76.3583 47.3033 76.0259 47.4922C75.8058 47.6206 75.5657 47.7028 75.318 47.7344L53.6261 50.9127" stroke="#8B7F5D" stroke-width="2" stroke-linecap="round" stroke-linejoin="round"/>
<path d="M27.3926 47.8672V67.5304C27.3926 68.3332 27.6839 69.1031 28.2025 69.6708C28.7212 70.2385 29.4246 70.5574 30.158 70.5574H72.6567C73.3901 70.5574 74.0935 70.2385 74.6121 69.6708C75.1308 69.1031 75.4221 68.3332 75.4221 67.5304V47.8672" stroke="#8B7F5D" stroke-width="2" stroke-linecap="round" stroke-linejoin="round"/>
<path d="M44.1846 36.2439V33.4531C44.186 32.9291 44.3772 32.4271 44.7162 32.0572C45.0553 31.6872 45.5144 31.4795 45.9931 31.4795H56.7118C57.1905 31.4795 57.6497 31.6872 57.9887 32.0572C58.3277 32.4271 58.5189 32.9291 58.5204 33.4531V36.2439" stroke="#8B7F5D" stroke-width="2" stroke-linecap="round" stroke-linejoin="round"/>
<path d="M65.2461 55.3926V65.2848" stroke="#8B7F5D" stroke-width="2" stroke-linecap="round" stroke-linejoin="round"/>
<path d="M69.7649 60.3022L60.7275 60.3741" stroke="#8B7F5D" stroke-width="2" stroke-linecap="round" stroke-linejoin="round"/>
<path d="M53.5198 50.2041C53.5198 48.9035 52.5565 47.8491 51.3683 47.8491C50.1801 47.8491 49.2168 48.9035 49.2168 50.2041V52.0324C49.2168 53.3331 50.1801 54.3875 51.3683 54.3875C52.5565 54.3875 53.5198 53.3331 53.5198 52.0324V50.2041Z" stroke="#8B7F5D" stroke-width="2" stroke-linecap="round" stroke-linejoin="round"/>
</svg>
